<?xml version="1.0" encoding="utf-8"?>
<!-- Generator: Adobe Illustrator 26.5.0, SVG Export Plug-In . SVG Version: 6.00 Build 0)  -->
<svg version="1.1" id="Capa_1" xmlns="http://www.w3.org/2000/svg" xmlns:xlink="http://www.w3.org/1999/xlink" x="0px" y="0px"
	 viewBox="0 0 20 20" style="enable-background:new 0 0 20 20;" xml:space="preserve">
<style type="text/css">
	.st0{fill:#C4E2CA;}
</style>
<path class="st0" d="M0,5c0-1.4,1.1-2.5,2.5-2.5h15C18.9,2.5,20,3.6,20,5v10c0,1.4-1.1,2.5-2.5,2.5h-15C1.1,17.5,0,16.4,0,15V5z
	 M11.2,6.9c0,0.3,0.3,0.6,0.6,0.6h5c0.3,0,0.6-0.3,0.6-0.6s-0.3-0.6-0.6-0.6h-5C11.5,6.2,11.2,6.5,11.2,6.9z M11.2,10
	c0,0.3,0.3,0.6,0.6,0.6h5c0.3,0,0.6-0.3,0.6-0.6c0-0.3-0.3-0.6-0.6-0.6h-5C11.5,9.4,11.2,9.7,11.2,10z M12.5,13.1
	c0,0.3,0.3,0.6,0.6,0.6h3.8c0.3,0,0.6-0.3,0.6-0.6s-0.3-0.6-0.6-0.6h-3.8C12.8,12.5,12.5,12.8,12.5,13.1z M11.2,15.6
	c0-2.4-2.2-4.4-5-4.4c-2.6,0-4.8,1.7-5,4c0.1,0.6,0.6,1,1.2,1h8.7C11.2,16,11.2,15.8,11.2,15.6z M8.8,7.5C8.8,6.1,7.6,5,6.2,5
	S3.8,6.1,3.8,7.5S4.9,10,6.2,10S8.8,8.9,8.8,7.5z"/>
</svg>
